<svg width="168" height="168" viewBox="0 0 168 168" fill="none" xmlns="http://www.w3.org/2000/svg">
    <path d="M13.875 70.625V61.25H23.25V51.875H32.625V42.5H42V33.125H32.625V23.75H23.25V14.375H13.875V5H32.625V14.375H42V23.75H51.375V33.125H60.75V42.5H51.375V51.875H42V61.25H32.625V70.625H13.875Z" fill="white"/>
    <path d="M4.5 154.625V89H51.375V98.375H60.75V107.75H70.125V135.875H60.75V145.25H51.375V154.625H4.5ZM23.25 145.25H42V135.875H51.375V107.75H42V98.375H23.25V145.25Z" fill="white"/>
    <path d="M107.25 70.625V61.25H97.875V51.875H88.5V23.75H97.875V14.375H107.25V5H144.75V14.375H154.125V23.75H135.375V14.375H116.625V23.75H107.25V51.875H116.625V61.25H135.375V51.875H154.125V61.25H144.75V70.625H107.25Z" fill="white"/>
    <path d="M88.5 164V154.625H154.125V164H88.5Z" fill="white"/>
</svg>
