<svg width="300" height="300" viewBox="0 0 300 300" fill="none" xmlns="http://www.w3.org/2000/svg">
<g clip-path="url(#clip0_86_9)">
<path d="M300 150C300 67.1573 232.843 0 150 0C67.1573 0 0 67.1573 0 150C0 232.843 67.1573 300 150 300C232.843 300 300 232.843 300 150Z" fill="#F3F3F3"/>
<path d="M206.97 92.7966L197.78 108.729L221.009 148.932C221.179 149.237 221.281 149.61 221.281 149.949C221.281 150.288 221.179 150.661 221.009 150.966L197.78 191.203L206.97 207.136L240 149.949L206.97 92.7627V92.7966ZM194.219 106.661L203.409 90.7288H185.029L175.839 106.661H194.253H194.219ZM175.805 110.797L197.271 147.915H215.651L194.219 110.797H175.805ZM194.219 189.169L215.651 152.017H197.271L175.805 189.169H194.219ZM175.805 193.305L184.995 209.169H203.375L194.185 193.305H175.771H175.805ZM113.509 213.102C113.136 213.102 112.797 213 112.492 212.83C112.186 212.661 111.915 212.39 111.745 212.085L88.4819 171.847H70.1017L103.132 229H169.158L159.968 213.102H113.543H113.509ZM163.529 211.034L172.719 226.932L181.909 211L172.719 195.068L163.529 211V211.034ZM169.158 193.034H126.294L117.104 208.966H159.968L169.158 193.034ZM122.699 191L101.233 153.847L92.0427 169.78L113.509 206.932L122.699 191ZM70.0678 167.712H88.448L97.6381 151.78H79.2918L70.0678 167.712ZM111.644 87.9491C111.813 87.6441 112.085 87.3729 112.39 87.2034C112.695 87.0339 113.068 86.9322 113.407 86.9322H159.9L169.09 71H103.03L70 128.186H88.3802L111.576 87.9831L111.644 87.9491ZM97.6381 148.22L88.448 132.288H70.0678L79.2579 148.22H97.6381ZM113.441 93.1017L92.0088 130.22L101.199 146.153L122.631 109.034L113.441 93.1017ZM159.934 91.0339H117.002L126.192 106.966H169.124L159.934 91.0339ZM172.719 104.898L181.875 89L172.719 73.0678L163.529 88.9661L172.719 104.898Z" fill="#33333B"/>
</g>
<defs>
<clipPath id="clip0_86_9">
<rect width="300" height="300" fill="white"/>
</clipPath>
</defs>
</svg>
