<svg width="120" height="120" viewBox="0 0 120 120" fill="none" xmlns="http://www.w3.org/2000/svg">
<rect width="120" height="120" rx="32" fill="#4541A0"/>
<path d="M62.3433 26.6053C62.9983 26.6053 63.6357 26.4128 64.1782 26.0503C64.7232 25.6879 65.1457 25.1704 65.3957 24.5679C65.6456 23.9629 65.7106 23.3004 65.5831 22.6579C65.4556 22.0179 65.1407 21.4304 64.6807 20.9679C64.2182 20.5055 63.6282 20.1905 62.9883 20.063C62.3483 19.9355 61.6833 20.003 61.0809 20.253C60.4759 20.503 59.9609 20.9254 59.5984 21.4679C59.236 22.0104 59.041 22.6504 59.041 23.3029C59.041 23.7379 59.126 24.1679 59.291 24.5679C59.4585 24.9679 59.7009 25.3329 60.0084 25.6404C60.3134 25.9479 60.6784 26.1903 61.0809 26.3553C61.4808 26.5228 61.9108 26.6078 62.3433 26.6053Z" fill="#A59BFF"/>
<path d="M38.0695 34.7377C38.532 34.2777 38.847 33.6877 38.9745 33.0477C39.102 32.4077 39.0345 31.7427 38.7845 31.1402C38.5345 30.5353 38.112 30.0203 37.5696 29.6578C37.0271 29.2953 36.3871 29.1003 35.7347 29.1003C35.0822 29.1003 34.4422 29.2953 33.8998 29.6578C33.3573 30.0203 32.9323 30.5353 32.6823 31.1402C32.4323 31.7427 32.3673 32.4077 32.4948 33.0477C32.6223 33.6877 32.9373 34.2777 33.3998 34.7377C33.7048 35.0452 34.0697 35.2902 34.4697 35.4552C34.8722 35.6202 35.2997 35.7077 35.7347 35.7077C36.1671 35.7077 36.5971 35.6202 36.9996 35.4552C37.3996 35.2902 37.7646 35.0452 38.0695 34.7377Z" fill="#A59BFF"/>
<path d="M26.6051 57.6547C26.6051 57.0022 26.4126 56.3648 26.0502 55.8198C25.6877 55.2773 25.1702 54.8548 24.5677 54.6048C23.9628 54.3548 23.3003 54.2898 22.6578 54.4173C22.0179 54.5448 21.4304 54.8573 20.9679 55.3198C20.5054 55.7823 20.1905 56.3698 20.063 57.0122C19.9355 57.6522 20.003 58.3172 20.253 58.9197C20.5029 59.5222 20.9254 60.0397 21.4679 60.4022C22.0104 60.7647 22.6503 60.9597 23.3028 60.9597C24.1803 60.9597 25.0202 60.6097 25.6377 59.9922C26.2576 59.3722 26.6051 58.5322 26.6051 57.6547Z" fill="#A59BFF"/>
<path d="M34.7397 81.9543C34.2772 81.4918 33.6898 81.1768 33.0473 81.0493C32.4073 80.9218 31.7449 80.9893 31.1399 81.2393C30.5374 81.4893 30.02 81.9118 29.6575 82.4542C29.295 82.9992 29.1025 83.6367 29.1025 84.2892C29.1025 84.9417 29.295 85.5817 29.6575 86.1242C30.02 86.6692 30.5374 87.0917 31.1399 87.3416C31.7449 87.5916 32.4073 87.6566 33.0473 87.5291C33.6898 87.4016 34.2772 87.0867 34.7397 86.6267C35.0472 86.3192 35.2897 85.9542 35.4547 85.5542C35.6222 85.1542 35.7072 84.7242 35.7072 84.2892C35.7072 83.8567 35.6222 83.4267 35.4547 83.0267C35.2897 82.6242 35.0472 82.2618 34.7397 81.9543Z" fill="#A59BFF"/>
<path d="M57.646 93.394C56.9936 93.394 56.3561 93.5865 55.8111 93.9515C55.2687 94.314 54.8462 94.829 54.5962 95.434C54.3462 96.0365 54.2812 96.7015 54.4087 97.3414C54.5362 97.9814 54.8512 98.5714 55.3112 99.0314C55.7736 99.4939 56.3636 99.8089 57.0036 99.9364C57.6435 100.064 58.3085 99.9989 58.911 99.7489C59.5135 99.4989 60.0309 99.0739 60.3934 98.5314C60.7559 97.9889 60.9509 97.3489 60.9509 96.6965C60.9484 95.8215 60.6009 94.9815 59.9809 94.3615C59.3635 93.744 58.5235 93.394 57.646 93.394Z" fill="#A59BFF"/>
<path d="M81.9498 85.2742C81.4898 85.7342 81.1748 86.3242 81.0474 86.9641C80.9199 87.6066 80.9849 88.2691 81.2348 88.8716C81.4848 89.4766 81.9098 89.9916 82.4523 90.3541C82.9948 90.7191 83.6322 90.9116 84.2872 90.9116C84.9397 90.9116 85.5796 90.7191 86.1221 90.3541C86.6646 89.9916 87.0871 89.4766 87.337 88.8716C87.587 88.2691 87.6545 87.6066 87.527 86.9641C87.3995 86.3242 87.0845 85.7342 86.6221 85.2742C86.3146 84.9667 85.9521 84.7242 85.5496 84.5567C85.1496 84.3917 84.7197 84.3067 84.2872 84.3067C83.8522 84.3067 83.4222 84.3917 83.0223 84.5567C82.6223 84.7242 82.2573 84.9667 81.9498 85.2742Z" fill="#A59BFF"/>
<path d="M93.3942 62.3471C93.3942 63.0021 93.5892 63.6396 93.9517 64.1821C94.3142 64.7271 94.8317 65.1496 95.4341 65.3996C96.0366 65.6496 96.7016 65.7146 97.3415 65.5871C97.984 65.4596 98.5715 65.1446 99.0339 64.6846C99.4964 64.2221 99.8089 63.6321 99.9364 62.9921C100.064 62.3521 99.9989 61.6872 99.7489 61.0847C99.4989 60.4797 99.0764 59.9647 98.534 59.6022C97.989 59.2397 97.3515 59.0447 96.6991 59.0447C95.8216 59.0447 94.9816 59.3922 94.3617 60.0122C93.7442 60.6322 93.3942 61.4722 93.3942 62.3471Z" fill="#A59BFF"/>
<path d="M85.2721 38.0676C85.7321 38.5276 86.3221 38.8426 86.9621 38.9701C87.6045 39.0976 88.267 39.0326 88.8695 38.7826C89.4744 38.5326 89.9894 38.1101 90.3519 37.5651C90.7169 37.0226 90.9094 36.3851 90.9094 35.7302C90.9094 35.0777 90.7169 34.4402 90.3519 33.8952C89.9894 33.3527 89.4744 32.9302 88.8695 32.6802C88.267 32.4302 87.6045 32.3652 86.9621 32.4927C86.3221 32.6202 85.7321 32.9327 85.2721 33.3952C84.9647 33.7027 84.7222 34.0652 84.5547 34.4677C84.3897 34.8677 84.3047 35.2977 84.3047 35.7302C84.3047 36.1652 84.3897 36.5951 84.5547 36.9951C84.7222 37.3951 84.9647 37.7601 85.2721 38.0676Z" fill="#A59BFF"/>
<path d="M68.1455 35.8452C66.9431 36.5401 66.4581 37.9926 66.2831 39.3701C66.1306 40.5701 65.6056 41.6925 64.7807 42.58C63.9582 43.4675 62.8758 44.0725 61.6908 44.3125C60.5034 44.55 59.271 44.4125 58.1685 43.915C57.0636 43.415 56.1461 42.585 55.5387 41.535C54.9337 40.4876 54.6737 39.2751 54.7937 38.0701C54.9137 36.8651 55.4087 35.7302 56.2086 34.8202C57.0086 33.9127 58.0735 33.2777 59.2535 33.0077C60.4334 32.7377 61.6683 32.8427 62.7833 33.3127C64.0657 33.8477 65.5681 34.1452 66.7731 33.4577C67.9805 32.7702 68.463 31.3102 68.638 29.9353C68.788 28.7328 69.313 27.6103 70.1354 26.7228C70.9604 25.8354 72.0403 25.2279 73.2278 24.9879C74.4152 24.7479 75.6476 24.8879 76.7501 25.3854C77.855 25.8829 78.775 26.7128 79.3799 27.7628C79.9849 28.8103 80.2474 30.0228 80.1274 31.2277C80.0074 32.4327 79.5124 33.5702 78.7125 34.4777C77.9125 35.3852 76.8476 36.0202 75.6676 36.2926C74.4877 36.5626 73.2528 36.4551 72.1353 35.9877C70.8554 35.4552 69.353 35.1552 68.1455 35.8452Z" fill="#A59BFF"/>
<path d="M48.684 37.1526C48.3265 38.4951 49.009 39.8676 49.8564 40.9651C50.5964 41.9225 51.0189 43.0875 51.0639 44.295C51.1064 45.505 50.7714 46.6949 50.1014 47.7024C49.4315 48.7099 48.4615 49.4824 47.3316 49.9099C46.1991 50.3374 44.9617 50.3974 43.7943 50.0849C42.6268 49.7724 41.5844 49.0999 40.8194 48.1649C40.0519 47.2299 39.5995 46.0775 39.522 44.87C39.447 43.6625 39.7495 42.4625 40.3919 41.4375C41.0344 40.4126 41.9818 39.6151 43.1018 39.1576C44.3867 38.6276 45.6692 37.7826 46.0141 36.4401C46.3591 35.0952 45.6892 33.7227 44.8392 32.6252C44.0992 31.6677 43.6793 30.5053 43.6368 29.2953C43.5943 28.0878 43.9317 26.8953 44.6017 25.8879C45.2717 24.8804 46.2391 24.1104 47.3716 23.6829C48.504 23.2579 49.7415 23.1954 50.9089 23.5104C52.0763 23.8229 53.1163 24.4954 53.8837 25.4329C54.6487 26.3678 55.1012 27.5203 55.1762 28.7278C55.2537 29.9353 54.9487 31.1352 54.3062 32.1602C53.6637 33.1852 52.7163 33.9827 51.5964 34.4402C50.3239 34.9627 49.0465 35.8127 48.684 37.1526Z" fill="#A59BFF"/>
<path d="M35.8372 51.8498C36.5321 53.0523 37.9895 53.5373 39.3645 53.7123C40.5669 53.8648 41.6894 54.3923 42.5768 55.2148C43.4618 56.0398 44.0667 57.1222 44.3067 58.3097C44.5442 59.4972 44.4042 60.7297 43.9042 61.8321C43.4043 62.9346 42.5718 63.8546 41.5244 64.4596C40.4744 65.0646 39.262 65.3246 38.057 65.2021C36.8521 65.0796 35.7172 64.5846 34.8097 63.7821C33.9023 62.9821 33.2673 61.9146 32.9998 60.7347C32.7298 59.5547 32.8373 58.3197 33.3098 57.2022C33.8448 55.9223 34.1397 54.4198 33.4548 53.2148C32.7673 52.0073 31.3074 51.5248 29.9275 51.3499C28.725 51.1974 27.6026 50.6724 26.7151 49.8474C25.8302 49.0224 25.2252 47.9399 24.9877 46.7524C24.7477 45.565 24.8877 44.3325 25.3877 43.23C25.8877 42.1275 26.7201 41.2075 27.7676 40.6051C28.8175 40.0001 30.03 39.7401 31.2349 39.8601C32.4398 39.9826 33.5748 40.4776 34.4822 41.2801C35.3897 42.0825 36.0246 43.1475 36.2921 44.3275C36.5621 45.51 36.4546 46.7449 35.9821 47.8599C35.4472 49.1399 35.1522 50.6424 35.8372 51.8498Z" fill="#A59BFF"/>
<path d="M37.1521 71.317C38.497 71.6745 39.8645 70.992 40.9669 70.1445C41.9218 69.4045 43.0868 68.982 44.2967 68.937C45.5042 68.8945 46.6966 69.2295 47.704 69.8995C48.7115 70.5695 49.4815 71.5395 49.9089 72.6694C50.3364 73.8019 50.3989 75.0394 50.0864 76.2069C49.7739 77.3743 49.1015 78.4168 48.1665 79.1818C47.2291 79.9493 46.0766 80.4018 44.8692 80.4793C43.6643 80.5543 42.4618 80.2518 41.4369 79.6093C40.4119 78.9668 39.6145 78.0193 39.157 76.8994C38.6295 75.6144 37.7796 74.3319 36.4421 73.9869C35.1022 73.6419 33.7248 74.3119 32.6273 75.1594C31.6699 75.9019 30.5049 76.3244 29.295 76.3694C28.0851 76.4144 26.8926 76.0769 25.8827 75.4069C24.8752 74.7369 24.1028 73.7669 23.6753 72.6344C23.2453 71.502 23.1853 70.2645 23.4978 69.0945C23.8103 67.927 24.4827 66.8845 25.4202 66.1171C26.3576 65.3496 27.5101 64.8971 28.72 64.8196C29.9275 64.7446 31.1299 65.0496 32.1548 65.6921C33.1798 66.3346 33.9773 67.2845 34.4347 68.4045C34.9647 69.682 35.8097 70.9545 37.1521 71.317Z" fill="#A59BFF"/>
<path d="M51.8413 84.1592C53.0438 83.4642 53.5313 82.0068 53.7087 80.6318C53.8637 79.4318 54.3887 78.3093 55.2137 77.4243C56.0361 76.5394 57.1186 75.9344 58.3035 75.6969C59.4909 75.4594 60.7209 75.5994 61.8233 76.0994C62.9258 76.5969 63.8432 77.4293 64.4457 78.4768C65.0507 79.5268 65.3106 80.7368 65.1907 81.9393C65.0682 83.1442 64.5732 84.2792 63.7732 85.1867C62.9708 86.0942 61.9058 86.7267 60.7284 86.9942C59.5484 87.2642 58.3135 87.1567 57.1986 86.6867C55.9136 86.1517 54.4112 85.8567 53.2113 86.5417C52.0088 87.2292 51.5164 88.6891 51.3414 90.0691C51.1889 91.2691 50.6639 92.3916 49.8389 93.2765C49.014 94.159 47.934 94.764 46.7466 95.0015C45.5617 95.239 44.3317 95.099 43.2293 94.599C42.1268 94.1015 41.2094 93.269 40.6069 92.2216C40.0019 91.1741 39.742 89.9641 39.862 88.7616C39.9819 87.5566 40.4769 86.4217 41.2769 85.5142C42.0768 84.6067 43.1418 83.9742 44.3217 83.7042C45.4992 83.4342 46.7341 83.5392 47.849 84.0092C49.1365 84.5467 50.6389 84.8542 51.8413 84.1592Z" fill="#A59BFF"/>
<path d="M71.3103 82.8492C71.6728 81.5043 70.9904 80.1318 70.1379 79.0343C69.3954 78.0768 68.973 76.9119 68.928 75.7019C68.8855 74.4919 69.2205 73.2994 69.8904 72.2895C70.5604 71.282 71.5303 70.5095 72.6628 70.082C73.7952 69.652 75.0327 69.592 76.2026 69.9045C77.3725 70.217 78.4125 70.8895 79.1799 71.827C79.9474 72.7644 80.3999 73.9169 80.4774 75.1269C80.5524 76.3344 80.2474 77.5368 79.6049 78.5618C78.9625 79.5868 78.0125 80.3843 76.8926 80.8418C75.6076 81.3718 74.3302 82.2193 73.9802 83.5592C73.6327 84.8992 74.3002 86.2767 75.1552 87.3742C75.8951 88.3316 76.3201 89.4966 76.3626 90.7066C76.4076 91.9166 76.0701 93.109 75.4001 94.1165C74.7302 95.1265 73.7627 95.899 72.6278 96.3265C71.4953 96.754 70.2579 96.8165 69.088 96.504C67.9205 96.189 66.8781 95.5165 66.1106 94.579C65.3431 93.644 64.8907 92.4891 64.8157 91.2816C64.7382 90.0741 65.0432 88.8716 65.6856 87.8466C66.3281 86.8192 67.2781 86.0217 68.398 85.5642C69.6804 85.0367 70.9529 84.1917 71.3103 82.8492Z" fill="#A59BFF"/>
<path d="M84.1572 68.1545C83.4622 66.9545 82.0098 66.4671 80.6349 66.2871C79.4349 66.1346 78.3125 65.6096 77.4275 64.7871C76.5401 63.9621 75.9351 62.8821 75.6976 61.6972C75.4576 60.5097 75.5976 59.2797 76.0951 58.1772C76.5926 57.0747 77.425 56.1573 78.4725 55.5523C79.5199 54.9473 80.7299 54.6873 81.9323 54.8048C83.1372 54.9248 84.2722 55.4198 85.1796 56.2198C86.0871 57.0172 86.7221 58.0822 86.992 59.2622C87.2645 60.4397 87.157 61.6746 86.6896 62.7896C86.1546 64.0746 85.8596 65.5771 86.5396 66.7795C87.222 67.9795 88.692 68.472 90.0669 68.647C91.2668 68.7995 92.3893 69.3245 93.2742 70.1495C94.1592 70.972 94.7641 72.0544 95.0041 73.2394C95.2416 74.4244 95.1016 75.6569 94.6041 76.7594C94.1042 77.8618 93.2742 78.7793 92.2268 79.3818C91.1793 79.9868 89.9669 80.2468 88.7644 80.1268C87.5595 80.0068 86.4246 79.5118 85.5171 78.7118C84.6097 77.9118 83.9772 76.8469 83.7072 75.6694C83.4372 74.4894 83.5422 73.2569 84.0122 72.1419C84.5472 70.8595 84.8521 69.357 84.1572 68.1545Z" fill="#A59BFF"/>
<path d="M82.8447 48.6824C81.5023 48.3249 80.1274 49.0074 79.0299 49.8599C78.0725 50.6024 76.9076 51.0249 75.6976 51.0699C74.4877 51.1124 73.2952 50.7774 72.2878 50.1074C71.2778 49.4374 70.5054 48.4674 70.0779 47.3349C69.6504 46.2025 69.5879 44.965 69.9029 43.795C70.2154 42.625 70.8879 41.5825 71.8228 40.8176C72.7603 40.0501 73.9152 39.5951 75.1226 39.5201C76.3301 39.4426 77.5325 39.7476 78.5575 40.3926C79.5849 41.0351 80.3824 41.9825 80.8399 43.105C81.3673 44.39 82.2123 45.6675 83.5572 46.015C84.8996 46.365 86.2721 45.695 87.3695 44.8425C88.327 44.1025 89.4919 43.6825 90.7019 43.64C91.9093 43.595 93.1017 43.9325 94.1067 44.6025C95.1141 45.275 95.8841 46.2425 96.3116 47.3749C96.739 48.5074 96.799 49.7424 96.4866 50.9124C96.1716 52.0798 95.4991 53.1198 94.5642 53.8848C93.6292 54.6523 92.4743 55.1048 91.2693 55.1798C90.0619 55.2548 88.8619 54.9498 87.837 54.3073C86.812 53.6648 86.0146 52.7173 85.5571 51.5973C85.0321 50.3224 84.1847 49.0449 82.8447 48.6824Z" fill="#A59BFF"/>
<path d="M59.9984 69.9095C65.4731 69.9095 69.9129 65.4721 69.9129 59.9972C69.9129 54.5223 65.4731 50.0849 59.9984 50.0849C54.5237 50.0849 50.0864 54.5223 50.0864 59.9972C50.0864 65.4721 54.5237 69.9095 59.9984 69.9095Z" fill="#A59BFF"/>
</svg>
