<svg width="120" height="120" viewBox="0 0 120 120" fill="none" xmlns="http://www.w3.org/2000/svg">
<rect width="120" height="120" rx="32" fill="#9C137D"/>
<path fill-rule="evenodd" clip-rule="evenodd" d="M103 58.011C103 36.8475 83.196 21 60.5 21C37.804 21 18 36.8475 18 58.011C18 79.1745 37.804 95.022 60.5 95.022C63.0683 95.022 65.5869 94.8238 68.0358 94.443C73.5018 97.9838 79.8219 100.292 86.6102 100.977C88.3312 101.151 90.0005 100.319 90.9189 98.8302C91.8372 97.3413 91.8461 95.4523 90.9418 93.9545C89.5313 91.6183 88.5467 88.99 88.0971 86.1758C97.0551 79.5134 103 69.4852 103 58.011Z" fill="#FF57DD"/>
<circle cx="60.627" cy="60" r="7.27254" fill="#9C137D"/>
<ellipse cx="39.9548" cy="59.9991" rx="7.40013" ry="7.27254" fill="#9C137D"/>
<circle cx="81.172" cy="59.9991" r="7.27254" fill="#9C137D"/>
</svg>
