<svg width="120" height="120" viewBox="0 0 120 120" fill="none" xmlns="http://www.w3.org/2000/svg">
<rect width="120" height="120" rx="32" fill="#007889"/>
<path d="M88.4045 75.3867C91.1223 75.3867 92.9809 78.2251 91.5942 80.5625C89.9366 83.3566 87.9611 85.6906 84.8213 88.0015C85.2437 90.6183 86.1689 93.0623 87.4943 95.2346C88.344 96.6274 88.3357 98.3839 87.4727 99.7684C86.6098 101.153 85.0413 101.926 83.4242 101.765C77.0457 101.128 71.1071 98.9813 65.9711 95.6888C63.6701 96.043 61.3035 96.2273 58.8902 96.2273C44.6795 96.2273 33.0674 90.4291 26.3527 80.4439C24.8377 78.1909 26.6233 75.3867 29.3384 75.3867C52.5477 75.3867 65.1985 75.3867 88.4045 75.3867Z" fill="#A0F3FF"/>
<path fill-rule="evenodd" clip-rule="evenodd" d="M86.9818 69.6501C87.4935 69.7083 88.0133 69.7381 88.5396 69.7381C96.5258 69.7381 103 62.8635 103 54.3832C103 45.903 96.5258 39.0284 88.5396 39.0284C85.9586 39.0284 83.5355 39.7464 81.4378 41.0046C80.7896 41.3934 79.8951 40.9827 79.8048 40.2323C78.295 27.6923 68.2128 18 56 18C43.4086 18 33.0819 28.3025 32.0797 41.4064C32.0316 42.036 31.4035 42.4676 30.7889 42.3229C29.8905 42.1114 28.9573 42 28 42C20.8203 42 15 48.268 15 56C15 63.732 20.8203 70 28 70C29.24 70 30.4395 69.813 31.5754 69.4638C31.6369 69.4449 31.6995 69.4907 31.6995 69.555V69.555C31.6995 69.6075 31.7421 69.6501 31.7946 69.6501H86.9818Z" fill="#A0F3FF"/>
</svg>
