<svg width="120" height="120" viewBox="0 0 120 120" fill="none" xmlns="http://www.w3.org/2000/svg">
<rect width="120" height="120" rx="32" fill="#005A4E"/>
<path fill-rule="evenodd" clip-rule="evenodd" d="M102 58.011C102 36.8475 82.196 21 59.5 21C36.804 21 17 36.8475 17 58.011C17 79.1745 36.804 95.022 59.5 95.022C62.0683 95.022 64.5869 94.8238 67.0358 94.443C72.5018 97.9838 78.8219 100.292 85.6102 100.977C87.3312 101.151 89.0005 100.319 89.9189 98.8302C90.8372 97.3413 90.8461 95.4523 89.9418 93.9545C88.5313 91.6183 87.5467 88.99 87.0971 86.1758C96.0551 79.5134 102 69.4852 102 58.011Z" fill="#1EFFCA"/>
<path fill-rule="evenodd" clip-rule="evenodd" d="M59.8359 41.8691C62.0451 41.8691 63.8359 43.66 63.8359 45.8691V53.8587C63.8359 54.411 64.2837 54.8587 64.8359 54.8587H72.8262C75.0353 54.8587 76.8262 56.6496 76.8262 58.8587C76.8262 61.0679 75.0353 62.8587 72.8262 62.8587H64.8359C64.2837 62.8587 63.8359 63.3065 63.8359 63.8587V71.8496C63.8359 74.0587 62.0451 75.8496 59.8359 75.8496C57.6268 75.8496 55.8359 74.0587 55.8359 71.8496V63.8587C55.8359 63.3065 55.3882 62.8587 54.8359 62.8587H46.8457C44.6366 62.8587 42.8457 61.0679 42.8457 58.8587C42.8457 56.6496 44.6366 54.8587 46.8457 54.8587H54.8359C55.3882 54.8587 55.8359 54.411 55.8359 53.8587V45.8691C55.8359 43.66 57.6268 41.8691 59.8359 41.8691Z" fill="#005A4E"/>
</svg>
