<svg width="120" height="120" viewBox="0 0 120 120" fill="none" xmlns="http://www.w3.org/2000/svg">
<rect width="120" height="120" rx="32" fill="#0042C7"/>
<path d="M64.1328 94.1349C64.1328 95.2547 65.0348 96.1699 66.154 96.1369C68.2039 96.0766 70.2503 95.8923 72.2775 95.5825C77.8148 99.1075 84.2173 101.406 91.0941 102.088C92.8376 102.261 94.5286 101.432 95.459 99.9501C96.3894 98.4679 96.3984 96.5874 95.4823 95.0963C94.0533 92.7705 93.0558 90.1539 92.6004 87.3524C101.675 80.7197 107.698 70.7365 107.698 59.3135C107.698 37.2431 88.1608 23.3218 66.1748 22.5084C65.0478 22.4667 64.1328 23.385 64.1328 24.5128V94.1349Z" fill="#61CDFF"/>
<path d="M29.1209 92.9394C21.3711 92.9394 14.7956 88.3991 14.7956 80.8841C14.7956 73.9954 19.7272 70.1597 27.3988 68.5941L40.3934 65.8542C40.3934 60.1398 37.8101 57.3999 33.035 57.3999C28.3381 57.3999 25.9114 59.5135 25.0503 63.3493L15.5001 62.723C17.0657 54.5035 23.3282 49.1022 33.035 49.1022C43.7594 49.1022 49.7088 55.5212 49.7088 66.4805V81.2755C49.7088 83.3891 50.4916 84.0154 52.3703 84.0154H54.5622V92C53.9359 92.1566 52.292 92.3131 50.7264 92.3131C45.5599 92.3131 42.5852 89.9647 41.5676 85.8158C39.6888 90.043 34.9137 92.9394 29.1209 92.9394ZM30.2951 85.1113C36.401 85.1113 40.3934 81.5887 40.3934 75.8742V72.9778L29.982 75.0914C26.1463 75.8742 24.5024 77.5181 24.5024 80.2579C24.5024 83.2326 26.4594 85.1113 30.2951 85.1113Z" fill="url(#paint0_linear_463_84205)"/>
<rect x="49.498" y="16" width="8.16842" height="86.1088" rx="2.04211" fill="#61CDFF"/>
<defs>
<linearGradient id="paint0_linear_463_84205" x1="51" y1="64.5" x2="11.0381" y2="64.5" gradientUnits="userSpaceOnUse">
<stop stop-color="#61CDFF" stop-opacity="0"/>
<stop offset="0.54" stop-color="#61CDFF"/>
</linearGradient>
</defs>
</svg>
