<svg width="120" height="120" viewBox="0 0 120 120" fill="none" xmlns="http://www.w3.org/2000/svg">
<rect width="120" height="120" rx="32" fill="#20272D" fill-opacity="0.5"/>
<rect x="16" y="16" width="40" height="40" rx="10.6667" fill="#0042C7"/>
<path d="M37.377 47.3783C37.377 47.7516 37.6776 48.0566 38.0507 48.0456C38.734 48.0255 39.4161 47.9641 40.0918 47.8608C41.9376 49.0358 44.0718 49.8018 46.3641 50.0292C46.9452 50.0868 47.5089 49.8108 47.819 49.3167C48.1291 48.8226 48.1321 48.1958 47.8268 47.6988C47.3505 46.9235 47.018 46.0513 46.8662 45.1175C49.8911 42.9066 51.8986 39.5788 51.8986 35.7712C51.8986 28.4144 45.3863 23.7739 38.0576 23.5028C37.6819 23.4889 37.377 23.795 37.377 24.1709V47.3783Z" fill="#61CDFF"/>
<path d="M25.7063 46.6464C23.1231 46.6464 20.9312 45.1329 20.9312 42.628C20.9312 40.3317 22.5751 39.0531 25.1323 38.5313L29.4638 37.618C29.4638 35.7132 28.6027 34.7999 27.011 34.7999C25.4454 34.7999 24.6365 35.5044 24.3495 36.783L21.166 36.5743C21.6879 33.8344 23.7754 32.034 27.011 32.034C30.5858 32.034 32.5689 34.1736 32.5689 37.8267V42.7584C32.5689 43.463 32.8299 43.6717 33.4561 43.6717H34.1867V46.3333C33.978 46.3854 33.43 46.4376 32.9082 46.4376C31.186 46.4376 30.1944 45.6548 29.8552 44.2719C29.229 45.6809 27.6372 46.6464 25.7063 46.6464ZM26.0977 44.037C28.133 44.037 29.4638 42.8628 29.4638 40.958V39.9925L25.9934 40.697C24.7148 40.958 24.1668 41.5059 24.1668 42.4192C24.1668 43.4108 24.8191 44.037 26.0977 44.037Z" fill="url(#paint0_linear_506_56374)"/>
<rect x="32.498" y="21.3333" width="2.72281" height="28.7029" rx="0.680702" fill="#61CDFF"/>
<rect x="64" y="16" width="40" height="40" rx="12" fill="black" fill-opacity="0.3"/>
<rect x="16" y="64" width="40" height="40" rx="10.6667" fill="#9C137D"/>
<path fill-rule="evenodd" clip-rule="evenodd" d="M50.334 83.337C50.334 76.2825 43.7326 71 36.1673 71C28.602 71 22.0007 76.2825 22.0007 83.337C22.0007 90.3915 28.602 95.674 36.1673 95.674C37.0234 95.674 37.863 95.6079 38.6793 95.481C40.5013 96.6613 42.608 97.4307 44.8707 97.6591C45.4444 97.717 46.0008 97.4397 46.3069 96.9434C46.6131 96.4471 46.616 95.8174 46.3146 95.3182C45.8444 94.5394 45.5162 93.6633 45.3664 92.7253C48.3524 90.5045 50.334 87.1617 50.334 83.337Z" fill="#FF57DD"/>
<path d="M36.9173 78.8893L38.6546 77.1521C39.6041 76.2026 41.1435 76.2026 42.093 77.1521C43.0424 78.1015 43.0424 79.6409 42.093 80.5904L35.136 87.548C34.4505 88.2335 33.6049 88.7375 32.6758 89.0142L29.1943 90.0513L30.2314 86.5699C30.5082 85.6407 31.0121 84.7952 31.6976 84.1097L36.9173 78.8893ZM36.9173 78.8893L40.3384 82.3104" stroke="#9C137D" stroke-width="2" stroke-linecap="round" stroke-linejoin="round"/>
<rect x="64" y="64" width="40" height="40" rx="10.6667" fill="#4541A0"/>
<path d="M84.7814 72.8685C84.9997 72.8685 85.2122 72.8044 85.3931 72.6835C85.5747 72.5627 85.7155 72.3902 85.7989 72.1894C85.8822 71.9877 85.9039 71.7669 85.8614 71.5527C85.8189 71.3394 85.7139 71.1436 85.5606 70.9894C85.4064 70.8352 85.2097 70.7302 84.9964 70.6877C84.7831 70.6452 84.5614 70.6677 84.3606 70.7511C84.159 70.8344 83.9873 70.9752 83.8665 71.1561C83.7456 71.3369 83.6807 71.5502 83.6807 71.7677C83.6807 71.9127 83.709 72.056 83.764 72.1894C83.8198 72.3227 83.9006 72.4444 84.0031 72.5469C84.1048 72.6494 84.2265 72.7302 84.3606 72.7852C84.4939 72.841 84.6373 72.8694 84.7814 72.8685Z" fill="#A59BFF"/>
<path d="M76.6902 75.5793C76.8443 75.426 76.9493 75.2293 76.9918 75.016C77.0343 74.8027 77.0118 74.581 76.9285 74.3802C76.8452 74.1785 76.7043 74.0068 76.5235 73.886C76.3427 73.7652 76.1294 73.7002 75.9119 73.7002C75.6944 73.7002 75.4811 73.7652 75.3002 73.886C75.1194 74.0068 74.9778 74.1785 74.8944 74.3802C74.8111 74.581 74.7894 74.8027 74.8319 75.016C74.8744 75.2293 74.9794 75.426 75.1336 75.5793C75.2352 75.6818 75.3569 75.7635 75.4902 75.8185C75.6244 75.8735 75.7669 75.9026 75.9119 75.9026C76.056 75.9026 76.1994 75.8735 76.3335 75.8185C76.4669 75.7635 76.5885 75.6818 76.6902 75.5793Z" fill="#A59BFF"/>
<path d="M72.8687 83.2183C72.8687 83.0008 72.8045 82.7883 72.6837 82.6067C72.5629 82.4258 72.3904 82.285 72.1896 82.2017C71.9879 82.1183 71.7671 82.0967 71.5529 82.1392C71.3396 82.1817 71.1438 82.2858 70.9896 82.44C70.8355 82.5942 70.7305 82.79 70.688 83.0042C70.6455 83.2175 70.668 83.4392 70.7513 83.64C70.8346 83.8408 70.9755 84.0133 71.1563 84.1341C71.3371 84.255 71.5504 84.32 71.7679 84.32C72.0604 84.32 72.3404 84.2033 72.5462 83.9975C72.7529 83.7908 72.8687 83.5108 72.8687 83.2183Z" fill="#A59BFF"/>
<path d="M75.5802 91.3182C75.4261 91.164 75.2302 91.059 75.0161 91.0165C74.8028 90.974 74.5819 90.9965 74.3803 91.0798C74.1795 91.1632 74.007 91.304 73.8862 91.4848C73.7653 91.6665 73.7012 91.879 73.7012 92.0965C73.7012 92.314 73.7653 92.5273 73.8862 92.7081C74.007 92.8898 74.1795 93.0306 74.3803 93.114C74.5819 93.1973 74.8028 93.219 75.0161 93.1765C75.2302 93.134 75.4261 93.029 75.5802 92.8756C75.6827 92.7731 75.7636 92.6515 75.8186 92.5181C75.8744 92.3848 75.9027 92.2415 75.9027 92.0965C75.9027 91.9523 75.8744 91.809 75.8186 91.6757C75.7636 91.5415 75.6827 91.4207 75.5802 91.3182Z" fill="#A59BFF"/>
<path d="M83.2157 95.1314C82.9982 95.1314 82.7857 95.1956 82.604 95.3172C82.4232 95.4381 82.2824 95.6097 82.1991 95.8114C82.1157 96.0122 82.0941 96.2339 82.1366 96.4472C82.1791 96.6606 82.2841 96.8572 82.4374 97.0105C82.5915 97.1647 82.7882 97.2697 83.0015 97.3122C83.2148 97.3547 83.4365 97.333 83.6373 97.2497C83.8381 97.1664 84.0106 97.0247 84.1315 96.8439C84.2523 96.6631 84.3173 96.4497 84.3173 96.2322C84.3165 95.9406 84.2006 95.6606 83.994 95.4539C83.7881 95.2481 83.5082 95.1314 83.2157 95.1314Z" fill="#A59BFF"/>
<path d="M91.3169 92.4248C91.1636 92.5781 91.0586 92.7748 91.0161 92.9881C90.9736 93.2023 90.9953 93.4231 91.0786 93.624C91.1619 93.8256 91.3036 93.9973 91.4844 94.1181C91.6652 94.2398 91.8777 94.3039 92.0961 94.3039C92.3135 94.3039 92.5269 94.2398 92.7077 94.1181C92.8885 93.9973 93.0293 93.8256 93.1127 93.624C93.196 93.4231 93.2185 93.2023 93.176 92.9881C93.1335 92.7748 93.0285 92.5781 92.8743 92.4248C92.7719 92.3223 92.651 92.2415 92.5169 92.1856C92.3835 92.1306 92.2402 92.1023 92.0961 92.1023C91.9511 92.1023 91.8077 92.1306 91.6744 92.1856C91.5411 92.2415 91.4194 92.3223 91.3169 92.4248Z" fill="#A59BFF"/>
<path d="M95.1317 84.7825C95.1317 85.0008 95.1967 85.2133 95.3176 85.3941C95.4384 85.5758 95.6109 85.7166 95.8117 85.7999C96.0125 85.8833 96.2342 85.9049 96.4475 85.8624C96.6617 85.8199 96.8575 85.7149 97.0116 85.5616C97.1658 85.4074 97.27 85.2108 97.3125 84.9975C97.355 84.7841 97.3333 84.5625 97.25 84.3616C97.1666 84.16 97.0258 83.9883 96.845 83.8675C96.6633 83.7466 96.4508 83.6816 96.2333 83.6816C95.9409 83.6816 95.6609 83.7975 95.4542 84.0041C95.2484 84.2108 95.1317 84.4908 95.1317 84.7825Z" fill="#A59BFF"/>
<path d="M92.4244 76.6893C92.5777 76.8426 92.7744 76.9476 92.9877 76.9901C93.2018 77.0326 93.4227 77.0109 93.6235 76.9276C93.8251 76.8443 93.9968 76.7035 94.1176 76.5218C94.2393 76.341 94.3034 76.1285 94.3034 75.9101C94.3034 75.6926 94.2393 75.4801 94.1176 75.2985C93.9968 75.1176 93.8251 74.9768 93.6235 74.8935C93.4227 74.8102 93.2018 74.7885 92.9877 74.831C92.7744 74.8735 92.5777 74.9777 92.4244 75.1318C92.3219 75.2343 92.241 75.3551 92.1852 75.4893C92.1302 75.6226 92.1019 75.766 92.1019 75.9101C92.1019 76.0551 92.1302 76.1985 92.1852 76.3318C92.241 76.4651 92.3219 76.5868 92.4244 76.6893Z" fill="#A59BFF"/>
<path d="M86.7155 75.9485C86.3147 76.1801 86.153 76.6643 86.0947 77.1234C86.0439 77.5234 85.8689 77.8976 85.5939 78.1934C85.3197 78.4892 84.9589 78.6909 84.5639 78.7709C84.1681 78.8501 83.7573 78.8042 83.3898 78.6384C83.0215 78.4718 82.7157 78.1951 82.5132 77.8451C82.3116 77.4959 82.2249 77.0918 82.2649 76.6901C82.3049 76.2885 82.4699 75.9101 82.7365 75.6068C83.0032 75.3043 83.3582 75.0927 83.7515 75.0027C84.1448 74.9127 84.5564 74.9477 84.9281 75.1043C85.3556 75.2826 85.8564 75.3818 86.258 75.1526C86.6605 74.9235 86.8213 74.4368 86.8797 73.9785C86.9296 73.5777 87.1046 73.2035 87.3788 72.9077C87.6538 72.6119 88.0138 72.4094 88.4096 72.3294C88.8054 72.2494 89.2162 72.296 89.5837 72.4619C89.952 72.6277 90.2586 72.9044 90.4603 73.2544C90.662 73.6035 90.7495 74.0077 90.7095 74.4093C90.6695 74.811 90.5045 75.1901 90.2378 75.4926C89.9712 75.7951 89.6162 76.0068 89.2229 76.0976C88.8296 76.1876 88.4179 76.1518 88.0454 75.996C87.6188 75.8185 87.118 75.7185 86.7155 75.9485Z" fill="#A59BFF"/>
<path d="M80.2283 76.3843C80.1092 76.8318 80.3367 77.2893 80.6191 77.6551C80.8658 77.9743 81.0066 78.3626 81.0216 78.7651C81.0358 79.1684 80.9241 79.5651 80.7008 79.9009C80.4775 80.2367 80.1542 80.4942 79.7775 80.6367C79.4 80.7792 78.9876 80.7992 78.5984 80.695C78.2093 80.5909 77.8618 80.3667 77.6068 80.0551C77.351 79.7434 77.2001 79.3592 77.1743 78.9567C77.1493 78.5542 77.2501 78.1543 77.4643 77.8126C77.6785 77.4709 77.9943 77.2051 78.3676 77.0526C78.7959 76.8759 79.2234 76.5943 79.3384 76.1468C79.4534 75.6985 79.23 75.241 78.9467 74.8752C78.7001 74.556 78.5601 74.1685 78.5459 73.7652C78.5317 73.3627 78.6442 72.9652 78.8676 72.6294C79.0909 72.2935 79.4134 72.0369 79.7908 71.8944C80.1683 71.7527 80.5808 71.7319 80.97 71.8369C81.3591 71.941 81.7058 72.1652 81.9616 72.4777C82.2166 72.7894 82.3674 73.1735 82.3924 73.576C82.4182 73.9785 82.3166 74.3785 82.1024 74.7202C81.8882 75.0618 81.5724 75.3276 81.1991 75.4801C80.775 75.6543 80.3492 75.9376 80.2283 76.3843Z" fill="#A59BFF"/>
<path d="M75.946 81.2834C76.1777 81.6842 76.6635 81.8458 77.1218 81.9042C77.5226 81.955 77.8968 82.1308 78.1926 82.405C78.4876 82.68 78.6892 83.0408 78.7692 83.4367C78.8484 83.8325 78.8017 84.2433 78.6351 84.6108C78.4684 84.9783 78.1909 85.2849 77.8418 85.4866C77.4918 85.6883 77.0877 85.7749 76.686 85.7341C76.2844 85.6933 75.906 85.5283 75.6036 85.2608C75.3011 84.9941 75.0894 84.6383 75.0003 84.245C74.9103 83.8516 74.9461 83.44 75.1036 83.0675C75.2819 82.6408 75.3802 82.14 75.1519 81.7384C74.9228 81.3359 74.4361 81.175 73.9761 81.1167C73.5753 81.0659 73.2012 80.8909 72.9054 80.6159C72.6104 80.3409 72.4087 79.9801 72.3296 79.5842C72.2496 79.1884 72.2962 78.7776 72.4629 78.4101C72.6295 78.0426 72.907 77.7359 73.2562 77.5351C73.6062 77.3334 74.0103 77.2468 74.412 77.2868C74.8136 77.3276 75.1919 77.4926 75.4944 77.7601C75.7969 78.0276 76.0085 78.3826 76.0977 78.7759C76.1877 79.1701 76.1519 79.5817 75.9944 79.9534C75.8161 80.38 75.7177 80.8809 75.946 81.2834Z" fill="#A59BFF"/>
<path d="M76.3844 87.7724C76.8327 87.8916 77.2885 87.6641 77.656 87.3816C77.9743 87.1349 78.3626 86.9941 78.7659 86.9791C79.1684 86.9649 79.5659 87.0766 79.9017 87.2999C80.2375 87.5232 80.4941 87.8466 80.6366 88.2232C80.7791 88.6007 80.8 89.0132 80.6958 89.4024C80.5916 89.7915 80.3675 90.139 80.0558 90.394C79.7433 90.6498 79.3592 90.8007 78.9567 90.8265C78.5551 90.8515 78.1543 90.7507 77.8126 90.5365C77.471 90.3224 77.2051 90.0065 77.0527 89.6332C76.8768 89.2049 76.5935 88.7774 76.1477 88.6624C75.7011 88.5474 75.2419 88.7707 74.8761 89.0532C74.5569 89.3007 74.1686 89.4415 73.7653 89.4565C73.362 89.4715 72.9645 89.359 72.6279 89.1357C72.2921 88.9124 72.0346 88.5891 71.8921 88.2116C71.7488 87.8341 71.7288 87.4216 71.8329 87.0316C71.9371 86.6424 72.1612 86.2949 72.4737 86.0391C72.7862 85.7833 73.1704 85.6324 73.5737 85.6066C73.9761 85.5816 74.377 85.6833 74.7186 85.8974C75.0603 86.1116 75.3261 86.4283 75.4786 86.8016C75.6552 87.2274 75.9369 87.6516 76.3844 87.7724Z" fill="#A59BFF"/>
<path d="M81.2808 92.0532C81.6816 91.8215 81.8441 91.3357 81.9032 90.8773C81.9549 90.4774 82.1299 90.1032 82.4049 89.8082C82.679 89.5132 83.0398 89.3115 83.4348 89.2324C83.8306 89.1532 84.2406 89.1999 84.6081 89.3665C84.9756 89.5324 85.2814 89.8099 85.4822 90.159C85.6839 90.509 85.7705 90.9123 85.7305 91.3132C85.6897 91.7148 85.5247 92.0932 85.2581 92.3956C84.9906 92.6981 84.6356 92.909 84.2431 92.9981C83.8498 93.0881 83.4382 93.0523 83.0665 92.8956C82.6382 92.7173 82.1374 92.619 81.7374 92.8473C81.3366 93.0765 81.1724 93.5631 81.1141 94.0231C81.0633 94.4231 80.8883 94.7973 80.6133 95.0923C80.3383 95.3864 79.9783 95.5881 79.5825 95.6672C79.1875 95.7464 78.7776 95.6997 78.4101 95.5331C78.0426 95.3673 77.7368 95.0898 77.536 94.7406C77.3343 94.3914 77.2476 93.9881 77.2876 93.5873C77.3276 93.1856 77.4926 92.8073 77.7593 92.5048C78.0259 92.2023 78.3809 91.9915 78.7742 91.9015C79.1667 91.8115 79.5784 91.8465 79.95 92.0032C80.3792 92.1823 80.88 92.2848 81.2808 92.0532Z" fill="#A59BFF"/>
<path d="M87.7704 91.6165C87.8913 91.1682 87.6638 90.7107 87.3796 90.3449C87.1321 90.0257 86.9913 89.6374 86.9763 89.234C86.9621 88.8307 87.0738 88.4332 87.2971 88.0966C87.5205 87.7607 87.8438 87.5032 88.2213 87.3607C88.5987 87.2174 89.0112 87.1974 89.4012 87.3016C89.7912 87.4057 90.1378 87.6299 90.3936 87.9424C90.6495 88.2549 90.8003 88.6391 90.8261 89.0424C90.8511 89.4449 90.7495 89.8457 90.5353 90.1874C90.3211 90.529 90.0045 90.7948 89.6312 90.9473C89.2029 91.124 88.7771 91.4065 88.6604 91.8532C88.5446 92.2998 88.7671 92.759 89.052 93.1248C89.2987 93.444 89.4404 93.8323 89.4545 94.2356C89.4695 94.6389 89.357 95.0364 89.1337 95.3723C88.9104 95.7089 88.5879 95.9664 88.2096 96.1089C87.8321 96.2514 87.4196 96.2722 87.0296 96.1681C86.6405 96.0631 86.293 95.8389 86.0372 95.5264C85.7814 95.2148 85.6305 94.8298 85.6055 94.4273C85.5797 94.0248 85.6814 93.624 85.8955 93.2823C86.1097 92.9398 86.4263 92.674 86.7997 92.5215C87.2271 92.3456 87.6513 92.064 87.7704 91.6165Z" fill="#A59BFF"/>
<path d="M92.0527 86.7183C91.8211 86.3183 91.3369 86.1558 90.8786 86.0958C90.4786 86.0449 90.1045 85.8699 89.8095 85.5958C89.5137 85.3208 89.312 84.9608 89.2329 84.5658C89.1529 84.17 89.1995 83.76 89.3654 83.3925C89.5312 83.025 89.8087 82.7192 90.1578 82.5175C90.507 82.3158 90.9103 82.2292 91.3111 82.2683C91.7127 82.3083 92.0911 82.4733 92.3935 82.74C92.696 83.0058 92.9077 83.3608 92.9977 83.7541C93.0885 84.1466 93.0527 84.5583 92.8968 84.93C92.7185 85.3583 92.6202 85.8591 92.8468 86.2599C93.0743 86.6599 93.5643 86.8241 94.0226 86.8824C94.4226 86.9333 94.7967 87.1082 95.0917 87.3832C95.3867 87.6574 95.5884 88.0182 95.6684 88.4132C95.7475 88.8082 95.7009 89.219 95.535 89.5865C95.3684 89.954 95.0917 90.2599 94.7426 90.4607C94.3934 90.6623 93.9893 90.749 93.5885 90.709C93.1868 90.669 92.8085 90.504 92.506 90.2374C92.2035 89.9707 91.9927 89.6157 91.9027 89.2232C91.8127 88.8299 91.8477 88.4191 92.0044 88.0474C92.1827 87.6199 92.2844 87.1191 92.0527 86.7183Z" fill="#A59BFF"/>
<path d="M91.6152 80.2275C91.1678 80.1084 90.7095 80.3359 90.3436 80.62C90.0245 80.8675 89.6362 81.0084 89.2329 81.0234C88.8296 81.0375 88.4321 80.9259 88.0963 80.7025C87.7596 80.4792 87.5021 80.1559 87.3596 79.7784C87.2171 79.4009 87.1963 78.9884 87.3013 78.5984C87.4055 78.2084 87.6296 77.8609 87.9413 77.6059C88.2537 77.3501 88.6387 77.1984 89.0412 77.1734C89.4437 77.1476 89.8445 77.2493 90.1861 77.4643C90.5286 77.6784 90.7945 77.9943 90.9469 78.3684C91.1228 78.7967 91.4044 79.2226 91.8527 79.3384C92.3002 79.4551 92.7577 79.2317 93.1235 78.9476C93.4426 78.7009 93.831 78.5609 94.2343 78.5467C94.6368 78.5317 95.0342 78.6442 95.3692 78.8676C95.705 79.0917 95.9617 79.4142 96.1042 79.7917C96.2467 80.1692 96.2667 80.5809 96.1625 80.9709C96.0575 81.36 95.8334 81.7067 95.5217 81.9617C95.2101 82.2175 94.8251 82.3683 94.4234 82.3933C94.021 82.4183 93.621 82.3167 93.2793 82.1025C92.9377 81.8883 92.6719 81.5725 92.5194 81.1992C92.3444 80.7742 92.0619 80.3484 91.6152 80.2275Z" fill="#A59BFF"/>
<path d="M83.9998 87.3032C85.8247 87.3032 87.3046 85.8241 87.3046 83.9991C87.3046 82.1742 85.8247 80.695 83.9998 80.695C82.1749 80.695 80.6958 82.1742 80.6958 83.9991C80.6958 85.8241 82.1749 87.3032 83.9998 87.3032Z" fill="#A59BFF"/>
<defs>
<linearGradient id="paint0_linear_506_56374" x1="33.2828" y1="37.3333" x2="19.6787" y2="37.3333" gradientUnits="userSpaceOnUse">
<stop stop-color="#61CDFF" stop-opacity="0"/>
<stop offset="0.54" stop-color="#61CDFF"/>
</linearGradient>
</defs>
</svg>
